<svg xmlns="http://www.w3.org/2000/svg" width="314" height="314" viewBox="0 0 314 314" fill="none"><g filter="url(#filter0_i_290_837)"><path d="M285.017 156.256C285.017 226.948 227.709 284.256 157.017 284.256C86.3242 284.256 29.0166 226.948 29.0166 156.256C29.0166 85.5634 86.3242 28.2559 157.017 28.2559C227.709 28.2559 285.017 85.5634 285.017 156.256Z" fill="#1D1D1D"></path></g><path d="M280.017 156.256C280.017 224.187 224.948 279.256 157.017 279.256C89.0856 279.256 34.0166 224.187 34.0166 156.256C34.0166 88.3248 89.0856 33.2559 157.017 33.2559C224.948 33.2559 280.017 88.3248 280.017 156.256Z" stroke="url(#paint0_linear_290_837)" stroke-width="10"></path><path d="M111.814 229.458L168.917 116.39V115.538H101.871V84.0035H209.826V115.538L152.439 229.458H111.814Z" fill="url(#paint1_linear_290_837)"></path><path d="M109.255 193.537L112.41 200.376L119.889 201.263L114.359 206.377L115.827 213.764L109.255 210.085L102.683 213.764L104.151 206.377L98.6211 201.263L106.1 200.376L109.255 193.537Z" fill="#FFBC00"></path><path d="M132.567 193.537L135.721 200.376L143.201 201.263L137.671 206.377L139.139 213.764L132.567 210.085L125.994 213.764L127.462 206.377L121.933 201.263L129.412 200.376L132.567 193.537Z" fill="#FFBC00"></path><path d="M156.065 193.537L159.219 200.376L166.699 201.263L161.169 206.377L162.637 213.764L156.065 210.085L149.492 213.764L150.96 206.377L145.431 201.263L152.91 200.376L156.065 193.537Z" fill="#FFBC00"></path><path d="M179.565 193.537L182.719 200.376L190.199 201.263L184.669 206.377L186.137 213.764L179.565 210.085L172.992 213.764L174.46 206.377L168.931 201.263L176.41 200.376L179.565 193.537Z" fill="#FFBC00"></path><path d="M203.065 193.537L206.219 200.376L213.699 201.263L208.169 206.377L209.637 213.764L203.065 210.085L196.492 213.764L197.96 206.377L192.431 201.263L199.91 200.376L203.065 193.537Z" fill="#FFBC00"></path><path d="M111.03 171.858H103.859V153.223H110.957C112.874 153.223 114.53 153.596 115.925 154.342C117.326 155.082 118.406 156.15 119.164 157.545C119.929 158.934 120.311 160.599 120.311 162.541C120.311 164.482 119.932 166.15 119.174 167.545C118.415 168.934 117.342 170.002 115.952 170.748C114.563 171.488 112.922 171.858 111.03 171.858ZM108.918 167.563H110.848C111.77 167.563 112.555 167.415 113.204 167.118C113.859 166.82 114.357 166.308 114.697 165.58C115.042 164.852 115.215 163.839 115.215 162.541C115.215 161.242 115.039 160.229 114.688 159.501C114.342 158.773 113.832 158.261 113.159 157.964C112.492 157.666 111.673 157.518 110.702 157.518H108.918V167.563ZM127.711 153.223V171.858H122.652V153.223H127.711ZM134.95 171.858H129.49L135.641 153.223H142.557L148.708 171.858H143.248L139.172 158.355H139.026L134.95 171.858ZM133.931 164.506H144.195V168.291H133.931V164.506ZM159.823 159.046C159.774 158.44 159.547 157.967 159.14 157.627C158.74 157.287 158.13 157.117 157.312 157.117C156.79 157.117 156.362 157.181 156.028 157.308C155.701 157.43 155.458 157.597 155.301 157.809C155.143 158.021 155.061 158.264 155.055 158.537C155.043 158.761 155.082 158.965 155.173 159.146C155.27 159.322 155.422 159.483 155.628 159.629C155.834 159.768 156.098 159.896 156.42 160.011C156.741 160.126 157.123 160.229 157.566 160.32L159.095 160.648C160.126 160.866 161.009 161.154 161.743 161.512C162.477 161.87 163.078 162.292 163.545 162.777C164.012 163.256 164.354 163.796 164.573 164.397C164.797 164.997 164.913 165.653 164.919 166.362C164.913 167.588 164.606 168.625 164 169.474C163.393 170.324 162.525 170.97 161.397 171.413C160.275 171.855 158.925 172.077 157.348 172.077C155.728 172.077 154.315 171.837 153.108 171.358C151.906 170.879 150.972 170.142 150.305 169.147C149.644 168.146 149.31 166.866 149.304 165.307H154.109C154.139 165.877 154.281 166.356 154.536 166.745C154.791 167.133 155.149 167.427 155.61 167.627C156.077 167.827 156.632 167.927 157.275 167.927C157.815 167.927 158.267 167.861 158.631 167.727C158.995 167.594 159.271 167.409 159.459 167.172C159.647 166.936 159.744 166.666 159.75 166.362C159.744 166.077 159.65 165.829 159.468 165.616C159.292 165.398 159.001 165.204 158.595 165.034C158.188 164.858 157.639 164.694 156.948 164.542L155.091 164.142C153.441 163.784 152.14 163.187 151.188 162.349C150.241 161.506 149.771 160.357 149.777 158.901C149.771 157.718 150.087 156.684 150.724 155.798C151.367 154.906 152.255 154.212 153.39 153.714C154.53 153.217 155.837 152.968 157.312 152.968C158.816 152.968 160.117 153.22 161.215 153.723C162.313 154.227 163.159 154.936 163.754 155.853C164.354 156.762 164.658 157.827 164.664 159.046H159.823ZM179.118 171.858H171.948V153.223H179.046C180.962 153.223 182.619 153.596 184.014 154.342C185.415 155.082 186.495 156.15 187.253 157.545C188.018 158.934 188.4 160.599 188.4 162.541C188.4 164.482 188.021 166.15 187.262 167.545C186.504 168.934 185.43 170.002 184.041 170.748C182.652 171.488 181.011 171.858 179.118 171.858ZM177.007 167.563H178.936C179.858 167.563 180.644 167.415 181.293 167.118C181.948 166.82 182.446 166.308 182.785 165.58C183.131 164.852 183.304 163.839 183.304 162.541C183.304 161.242 183.128 160.229 182.776 159.501C182.43 158.773 181.921 158.261 181.248 157.964C180.58 157.666 179.761 157.518 178.791 157.518H177.007V167.563ZM190.741 171.858V153.223H204.171V157.299H195.8V160.502H203.48V164.579H195.8V167.782H204.135V171.858H190.741ZM99.3834 179.374C99.3045 179.052 99.1802 178.77 99.0103 178.528C98.8405 178.279 98.6281 178.07 98.3734 177.9C98.1246 177.724 97.8335 177.594 97.4998 177.509C97.1722 177.418 96.8113 177.372 96.417 177.372C95.5677 177.372 94.8428 177.575 94.2422 177.982C93.6477 178.388 93.1928 178.974 92.8773 179.738C92.5679 180.502 92.4132 181.424 92.4132 182.504C92.4132 183.596 92.5619 184.53 92.8591 185.307C93.1564 186.083 93.5992 186.678 94.1876 187.09C94.7761 187.503 95.507 187.709 96.3806 187.709C97.151 187.709 97.791 187.597 98.3006 187.372C98.8162 187.148 99.2014 186.829 99.4562 186.417C99.711 186.004 99.8384 185.519 99.8384 184.961L100.712 185.052H96.4534V181.449H104.716V184.033C104.716 185.731 104.355 187.184 103.633 188.392C102.917 189.593 101.928 190.515 100.666 191.158C99.4107 191.795 97.97 192.113 96.3442 192.113C94.5304 192.113 92.938 191.728 91.567 190.958C90.196 190.187 89.1253 189.089 88.3549 187.664C87.5905 186.238 87.2084 184.542 87.2084 182.577C87.2084 181.036 87.4419 179.671 87.909 178.482C88.3822 177.293 89.0373 176.289 89.8745 175.47C90.7116 174.645 91.6792 174.024 92.7772 173.605C93.8752 173.18 95.0521 172.968 96.3078 172.968C97.4119 172.968 98.4371 173.126 99.3834 173.441C100.336 173.751 101.176 174.193 101.904 174.77C102.638 175.34 103.229 176.016 103.678 176.799C104.127 177.581 104.4 178.44 104.497 179.374H99.3834ZM111.34 191.858H105.88L112.032 173.223H118.947L125.098 191.858H119.639L115.562 178.355H115.417L111.34 191.858ZM110.321 184.506H120.585V188.291H110.321V184.506ZM126.893 191.858V173.223H134.937C136.32 173.223 137.53 173.475 138.568 173.978C139.605 174.482 140.412 175.206 140.988 176.153C141.565 177.099 141.853 178.234 141.853 179.556C141.853 180.891 141.555 182.016 140.961 182.932C140.373 183.848 139.544 184.539 138.477 185.007C137.415 185.474 136.175 185.707 134.755 185.707H129.951V181.776H133.736C134.331 181.776 134.837 181.703 135.256 181.558C135.68 181.406 136.005 181.167 136.229 180.839C136.46 180.511 136.575 180.084 136.575 179.556C136.575 179.022 136.46 178.588 136.229 178.255C136.005 177.915 135.68 177.666 135.256 177.509C134.837 177.345 134.331 177.263 133.736 177.263H131.953V191.858H126.893ZM137.813 183.305L142.471 191.858H136.975L132.426 183.305H137.813ZM148.85 191.858H143.391L149.542 173.223H156.457L162.609 191.858H157.149L153.072 178.355H152.927L148.85 191.858ZM147.831 184.506H158.095V188.291H147.831V184.506ZM180.528 173.223V191.858H176.305L169.572 182.067H169.463V191.858H164.403V173.223H168.698L175.323 182.977H175.468V173.223H180.528ZM182.411 177.299V173.223H198.608V177.299H193.003V191.858H188.016V177.299H182.411ZM205.571 173.223V191.858H200.512V173.223H205.571ZM212.81 191.858H207.35L213.502 173.223H220.417L226.568 191.858H221.109L217.032 178.355H216.887L212.81 191.858ZM211.791 184.506H222.055V188.291H211.791V184.506Z" fill="white"></path><defs><filter id="filter0_i_290_837" x="29.0166" y="28.2559" width="260" height="260" filterUnits="userSpaceOnUse" color-interpolation-filters="sRGB"><feGaussianBlur stdDeviation="2"></feGaussianBlur></filter><linearGradient id="paint0_linear_290_837" x1="157.017" y1="28.2559" x2="157.017" y2="284.256" gradientUnits="userSpaceOnUse"><stop stop-color="#5E3FDE"></stop><stop offset="1" stop-color="#5AF4FF"></stop></linearGradient><linearGradient id="paint1_linear_290_837" x1="157.121" y1="35.458" x2="157.121" y2="277.458" gradientUnits="userSpaceOnUse"><stop stop-color="#5E3FDE"></stop><stop offset="1" stop-color="#5AF4FF"></stop></linearGradient></defs></svg>