<svg xmlns="http://www.w3.org/2000/svg" width="314" height="314" viewBox="0 0 314 314" fill="none"><path d="M296.849 163.686L298.227 163.766L298.006 167.579L291.217 167.186C290.995 165.49 290.922 163.984 290.998 162.666C291.115 160.656 291.775 159.292 292.978 158.574C294.181 157.869 295.987 157.586 298.396 157.726C300.819 157.866 302.587 158.356 303.7 159.195C304.826 160.048 305.332 161.466 305.217 163.45C305.145 164.688 304.938 165.964 304.594 167.28L304.435 167.952L303.161 167.818C303.536 166.184 303.758 164.761 303.829 163.55C303.917 162.019 303.531 160.961 302.67 160.377C301.823 159.794 300.367 159.442 298.304 159.323C296.254 159.204 294.768 159.385 293.845 159.866C292.936 160.347 292.437 161.347 292.349 162.864C292.295 163.796 292.333 164.753 292.463 165.736L296.716 165.982L296.849 163.686Z" fill="white"></path><path d="M290.58 172.746L303.559 178.874L302.98 182.184L288.692 183.543L288.954 182.045L292.633 181.674L293.653 175.842L290.318 174.244L290.58 172.746ZM302.058 179.79L294.954 176.415L294.051 181.577L301.879 180.814L302.058 179.79Z" fill="white"></path><path d="M292.237 191.978L287.16 190.456L287.602 188.981L300.859 192.954L299.39 197.859C298.969 199.264 298.327 200.22 297.465 200.727C296.6 201.247 295.477 201.3 294.098 200.887C292.054 200.275 291.014 199.079 290.976 197.3L284.829 198.235L285.317 196.606L291.112 195.733L292.237 191.978ZM292.506 195.817C291.967 197.618 292.623 198.795 294.475 199.35C296.339 199.909 297.544 199.282 298.087 197.468L299.115 194.039L293.54 192.368L292.506 195.817Z" fill="white"></path><path d="M283.272 203.259L294.472 212.234L293.14 215.318L278.928 213.321L279.53 211.925L283.195 212.418L285.542 206.983L282.67 204.654L283.272 203.259ZM292.8 212.775L286.674 207.843L284.597 212.653L292.388 213.73L292.8 212.775Z" fill="white"></path><path d="M276.607 218.396L288.549 225.391L287.093 227.876L273.646 226.141L273.434 226.504L284.202 232.812L283.434 234.123L271.492 227.128L272.917 224.695L286.405 226.36L286.597 226.033L275.829 219.725L276.607 218.396Z" fill="white"></path><path d="M278.486 239.512L279.587 240.344L273.558 248.322L272.457 247.49L275.001 244.124L265.061 236.611L265.977 235.399L275.918 242.911L278.486 239.512Z" fill="white"></path><path d="M258.81 244.475L269.115 253.713L268.087 254.86L257.782 245.621L258.81 244.475Z" fill="white"></path><path d="M254.12 249.896L260.808 262.595L258.355 264.892L246.121 257.389L247.23 256.35L250.394 258.264L254.714 254.217L253.011 250.936L254.12 249.896ZM259.059 262.425L255.41 255.457L251.585 259.039L258.3 263.136L259.059 262.425Z" fill="white"></path><path d="M235.02 266.217L242.873 277.614L241.605 278.488L233.752 267.091L235.02 266.217Z" fill="white"></path><path d="M228.156 271.005L234.886 283.099L232.369 284.499L221.669 276.171L221.302 276.375L227.371 287.28L226.043 288.019L219.313 275.926L221.777 274.554L232.547 282.844L232.879 282.659L226.81 271.754L228.156 271.005Z" fill="white"></path><path d="M205.33 282.505C206.494 281.725 207.582 281.128 208.594 280.714C209.606 280.299 210.482 280.098 211.222 280.112C211.956 280.143 212.614 280.378 213.197 280.816C213.773 281.272 214.282 281.848 214.727 282.545C215.163 283.259 215.614 284.184 216.08 285.319C216.545 286.454 216.872 287.429 217.063 288.245C217.245 289.078 217.292 289.858 217.201 290.587C217.098 291.321 216.794 291.95 216.288 292.474C215.783 292.998 215.037 293.463 214.05 293.867C213.063 294.272 211.847 294.611 210.404 294.886L209.966 293.66C211.303 293.372 212.459 293.028 213.434 292.628C214.791 292.072 215.525 291.296 215.635 290.3C215.738 289.321 215.39 287.857 214.592 285.907C214.192 284.933 213.834 284.164 213.517 283.602C213.188 283.046 212.808 282.575 212.376 282.19C211.95 281.817 211.471 281.617 210.941 281.589C210.404 281.578 209.704 281.75 208.84 282.104C207.964 282.463 206.979 282.996 205.886 283.704L205.33 282.505Z" fill="white"></path><path d="M200.671 291.313C200.126 289.361 199.476 288.026 198.723 287.309C197.972 286.605 196.865 286.457 195.401 286.866C193.924 287.278 193.052 287.972 192.784 288.946C192.503 289.924 192.637 291.396 193.186 293.361C193.734 295.326 194.397 296.684 195.175 297.436C195.952 298.188 197.067 298.362 198.518 297.956C199.956 297.555 200.813 296.831 201.089 295.785C201.355 294.756 201.216 293.265 200.671 291.313ZM191.645 293.791C190.981 291.415 190.88 289.589 191.34 288.311C191.8 287.034 193.032 286.115 195.035 285.556C197.026 285 198.552 285.163 199.615 286.043C200.677 286.923 201.535 288.532 202.187 290.869C202.843 293.219 202.944 295.067 202.489 296.412C202.037 297.77 200.829 298.723 198.864 299.272C196.899 299.82 195.374 299.637 194.288 298.722C193.189 297.81 192.308 296.167 191.645 293.791Z" fill="white"></path><path d="M183.275 288.853L185.24 302.553L182.389 302.962L175.371 291.361L174.955 291.421L176.727 303.774L175.223 303.99L173.257 290.291L176.049 289.89L183.147 301.479L183.523 301.425L181.75 289.072L183.275 288.853Z" fill="white"></path><path d="M161.307 291.187L166.246 291.073L166.567 304.909L161.628 305.023C159.375 305.075 157.862 304.217 157.087 302.448C156.637 301.431 156.392 300.09 156.354 298.424C156.273 294.945 157.089 292.732 158.801 291.785C159.485 291.409 160.321 291.21 161.307 291.187ZM157.933 298.387C157.995 301.04 158.626 302.679 159.828 303.305C160.314 303.56 160.903 303.68 161.596 303.664L164.995 303.585L164.738 292.468L161.339 292.547C158.98 292.601 157.844 294.548 157.933 298.387Z" fill="white"></path><path d="M149.368 291.077L148.354 304.88L146.818 304.767L147.832 290.964L149.368 291.077Z" fill="white"></path><path d="M132.688 289.353C134.088 289.292 135.328 289.348 136.408 289.52C137.488 289.691 138.34 289.976 138.966 290.372C139.576 290.78 140.016 291.323 140.286 292C140.541 292.689 140.677 293.446 140.694 294.272C140.696 295.11 140.6 296.134 140.408 297.346C140.215 298.557 139.988 299.56 139.726 300.356C139.449 301.162 139.083 301.853 138.626 302.429C138.157 303.002 137.57 303.381 136.866 303.566C136.161 303.751 135.282 303.76 134.229 303.592C133.175 303.424 131.961 303.082 130.585 302.566L130.848 301.292C132.141 301.741 133.307 302.048 134.347 302.213C135.795 302.444 136.826 302.162 137.438 301.369C138.035 300.586 138.499 299.155 138.831 297.074C138.996 296.034 139.09 295.192 139.111 294.547C139.12 293.9 139.04 293.3 138.871 292.747C138.701 292.207 138.396 291.787 137.958 291.488C137.504 291.199 136.817 290.982 135.895 290.835C134.96 290.686 133.842 290.63 132.54 290.666L132.688 289.353Z" fill="white"></path><path d="M126.803 287.919L123.488 301.356L121.993 300.987L125.308 287.55L126.803 287.919Z" fill="white"></path><path d="M115.449 292.109C116.126 290.199 116.361 288.733 116.157 287.713C115.948 286.706 115.126 285.948 113.694 285.441C112.248 284.93 111.136 284.996 110.356 285.639C109.564 286.278 108.828 287.559 108.147 289.482C107.467 291.405 107.228 292.898 107.432 293.96C107.636 295.022 108.448 295.805 109.869 296.308C111.276 296.806 112.394 296.706 113.22 296.009C114.03 295.32 114.773 294.02 115.449 292.109ZM106.639 288.948C107.462 286.623 108.429 285.07 109.54 284.289C110.651 283.508 112.187 283.465 114.147 284.159C116.096 284.849 117.251 285.859 117.615 287.19C117.978 288.521 117.755 290.33 116.946 292.617C116.131 294.918 115.152 296.487 114.006 297.326C112.856 298.178 111.319 298.264 109.396 297.583C107.473 296.902 106.33 295.876 105.967 294.503C105.592 293.125 105.816 291.274 106.639 288.948Z" fill="white"></path><path d="M102.639 280.105L96.4066 292.462L93.8351 291.165L94.7227 277.636L94.3477 277.447L88.7279 288.59L87.3707 287.905L93.6029 275.548L96.1208 276.818L95.3047 290.383L95.644 290.555L101.264 279.411L102.639 280.105Z" fill="white"></path><path d="M88.4295 272.841L77.5845 282.241L74.79 280.376L79.3142 266.755L80.5784 267.599L79.4334 271.115L84.357 274.402L87.1653 271.997L88.4295 272.841ZM77.3526 280.499L83.308 275.361L78.9499 272.452L76.4877 279.922L77.3526 280.499Z" fill="white"></path><path d="M68.9757 258.645L74.8307 263.522L65.9729 274.156L64.7896 273.17L72.7642 263.596L68.0925 259.705L68.9757 258.645Z" fill="white"></path><path d="M55.3041 252.281L54.2515 253.204L50.2558 248.648L51.3083 247.725L55.3041 252.281Z" fill="white"></path><path d="M35.7125 239.104L34.5232 239.843L30.1977 232.876L31.9138 231.811L44.2615 230.124L44.6408 231.607L32.6518 233.189L32.21 233.463L35.7125 239.104Z" fill="white"></path><path d="M32.1906 207.481L33.9952 212.08L21.1117 217.136L19.3071 212.537C18.4839 210.44 18.77 208.723 20.1653 207.388C20.9652 206.616 22.1408 205.925 23.6923 205.316C26.9318 204.045 29.2901 204.05 30.7673 205.333C31.3557 205.847 31.8301 206.563 32.1906 207.481ZM24.2695 206.787C21.7995 207.756 20.4772 208.913 20.3025 210.256C20.2296 210.8 20.3198 211.395 20.5731 212.04L21.8152 215.205L32.1666 211.143L30.9246 207.978C30.0624 205.781 27.8441 205.384 24.2695 206.787Z" fill="white"></path><path d="M28.2892 196.632L14.9874 200.454L14.5622 198.974L27.8639 195.152L28.2892 196.632Z" fill="white"></path><path d="M26.2196 189.936L11.9084 188.851L11.2663 185.553L24.125 179.178L24.4155 180.67L21.1122 182.332L22.2436 188.143L25.9291 188.444L26.2196 189.936ZM12.9824 187.46L20.824 188.073L19.8226 182.929L12.7837 186.439L12.9824 187.46Z" fill="white"></path><path d="M10.2584 170.789C10.4203 172.782 11.252 173.718 12.7538 173.596C13.591 173.528 14.1508 173.255 14.433 172.777C14.7009 172.287 14.9377 171.332 15.1434 169.91C15.3347 168.477 15.6591 167.447 16.1167 166.822C16.5609 166.197 17.3545 165.838 18.4974 165.745C21.3281 165.516 22.8626 166.869 23.1011 169.806C23.1798 170.776 23.1656 172.002 23.0583 173.482L23.0169 174.208L21.7281 174.152C21.8206 172.325 21.8286 170.94 21.752 169.996C21.5923 168.029 20.5889 167.121 18.7416 167.271C17.9974 167.331 17.4836 167.594 17.2003 168.058C16.9025 168.51 16.6887 169.337 16.5588 170.538C16.3528 172.12 16.0171 173.257 15.5516 173.951C15.0729 174.645 14.2156 175.042 12.9796 175.143C10.5078 175.343 9.15156 173.962 8.91098 170.998C8.83223 170.028 8.83751 168.857 8.92682 167.486L8.97147 166.8L10.2785 166.834C10.2026 168.7 10.1959 170.018 10.2584 170.789Z" fill="white"></path><path d="M17.5544 150.483L16.159 150.37L16.6493 144.33L18.0447 144.443L17.5544 150.483Z" fill="white"></path><path d="M20.7392 122.822L19.4032 122.477L20.3603 118.779L26.9434 120.482C26.8323 122.189 26.6114 123.681 26.2806 124.959C25.7762 126.908 24.8639 128.118 23.5438 128.589C22.2271 129.047 20.4005 128.974 18.0641 128.369C15.7149 127.761 14.0756 126.937 13.1464 125.898C12.2076 124.843 11.9871 123.353 12.4848 121.43C12.7955 120.229 13.247 119.017 13.8392 117.793L14.1257 117.165L15.3499 117.544C14.6646 119.074 14.1699 120.427 13.8659 121.601C13.4817 123.086 13.6552 124.198 14.3865 124.938C15.1048 125.675 16.4643 126.302 18.465 126.82C20.4529 127.335 21.946 127.446 22.9445 127.153C23.93 126.857 24.6132 125.974 24.9941 124.502C25.2279 123.599 25.3764 122.652 25.4396 121.663L21.3155 120.596L20.7392 122.822Z" fill="white"></path><path d="M28.6343 115.173L17.1069 106.623L18.3226 103.49L32.5998 104.955L32.0499 106.372L28.3693 106.016L26.2273 111.535L29.1843 113.756L28.6343 115.173ZM18.7572 106.019L25.0638 110.719L26.9597 105.834L19.1335 105.049L18.7572 106.019Z" fill="white"></path><path d="M30.5472 96.4177L35.2344 98.8915L34.5156 100.253L22.2757 93.7936L24.6655 89.2655C25.3501 87.9684 26.1642 87.1543 27.1079 86.8231C28.0578 86.4802 29.1695 86.6448 30.443 87.3169C32.3297 88.3126 33.1196 89.6869 32.8126 91.4396L39.0245 91.7103L38.231 93.2137L32.3768 92.9509L30.5472 96.4177ZM31.0247 92.5991C31.9022 90.9365 31.4861 89.654 29.7763 88.7516C28.0546 87.8429 26.752 88.2259 25.8683 89.9003L24.1973 93.0664L29.3444 95.7829L31.0247 92.5991Z" fill="white"></path><path d="M41.621 86.8563L32.3802 75.8748L34.2866 73.108L47.8393 77.8311L46.9769 79.0828L43.478 77.8864L40.1192 82.7614L42.4834 85.6046L41.621 86.8563ZM34.1253 75.6685L39.1758 81.6984L42.1488 77.3834L34.7154 74.8121L34.1253 75.6685Z" fill="white"></path><path d="M51.0727 73.2941L40.7008 64.1307L42.6076 61.9724L55.4695 66.2634L55.7475 65.9487L46.3948 57.6857L47.4012 56.5466L57.7731 65.71L55.906 67.8234L42.9912 63.5922L42.7396 63.877L52.0923 72.14L51.0727 73.2941Z" fill="white"></path><path d="M53.2943 52.1856L52.3731 51.1581L59.8189 44.4828L60.7401 45.5103L57.5979 48.3273L65.9154 57.6048L64.7836 58.6194L56.4662 49.3419L53.2943 52.1856Z" fill="white"></path><path d="M73.4396 51.1636L65.0954 40.1219L66.324 39.1934L74.6683 50.2351L73.4396 51.1636Z" fill="white"></path><path d="M78.9992 46.762L74.8765 33.0147L77.7245 31.2318L88.2891 40.9465L87.0007 41.7531L84.2641 39.2662L79.2462 42.4074L80.2876 45.9555L78.9992 46.762ZM76.5602 33.518L78.8022 41.0572L83.2437 38.2769L77.4417 32.9662L76.5602 33.518Z" fill="white"></path><path d="M100.687 34.4455L95.2008 21.7394L96.6146 21.1289L102.101 33.835L100.687 34.4455Z" fill="white"></path><path d="M108.661 30.907L104.439 17.7269L107.181 16.8482L116.036 27.1161L116.436 26.988L112.629 15.103L114.076 14.6393L118.299 27.8194L115.613 28.6798L106.682 18.4362L106.32 18.5522L110.128 30.4371L108.661 30.907Z" fill="white"></path><path d="M133.338 24.0478C132.043 24.5851 130.859 24.9582 129.786 25.1671C128.713 25.3761 127.815 25.4016 127.091 25.2436C126.378 25.07 125.779 24.7113 125.292 24.1675C124.817 23.6081 124.429 22.9433 124.13 22.173C123.841 21.387 123.579 20.392 123.345 19.188C123.11 17.9839 122.98 16.9634 122.953 16.1265C122.936 15.274 123.043 14.4992 123.274 13.8022C123.518 13.1026 123.94 12.5452 124.538 12.1299C125.136 11.7145 125.959 11.4049 127.006 11.2011C128.053 10.9972 129.311 10.9017 130.781 10.9144L130.97 12.2019C129.603 12.2237 128.402 12.3352 127.368 12.5365C125.928 12.8168 125.057 13.4347 124.754 14.3902C124.461 15.3301 124.517 16.834 124.919 18.9018C125.12 19.9357 125.322 20.7592 125.522 21.3721C125.736 21.9824 126.017 22.5186 126.365 22.9806C126.711 23.4295 127.141 23.7194 127.655 23.8501C128.18 23.9652 128.901 23.9336 129.817 23.7552C130.746 23.5743 131.816 23.2438 133.027 22.7636L133.338 24.0478Z" fill="white"></path><path d="M139.216 16.3267C139.372 18.3474 139.75 19.7825 140.351 20.6321C140.95 21.4683 142.008 21.8279 143.523 21.7108C145.052 21.5926 146.042 21.0814 146.494 20.1773C146.959 19.2721 147.113 17.8025 146.956 15.7686C146.798 13.7346 146.411 12.2735 145.794 11.385C145.177 10.4966 144.118 10.1104 142.616 10.2266C141.127 10.3417 140.146 10.8855 139.673 11.8582C139.212 12.8166 139.059 14.3061 139.216 16.3267ZM148.551 15.6453C148.741 18.1046 148.487 19.9163 147.788 21.0803C147.088 22.2443 145.702 22.9064 143.628 23.0667C141.568 23.226 140.102 22.771 139.23 21.7016C138.358 20.6323 137.829 18.8879 137.642 16.4685C137.454 14.0357 137.713 12.2036 138.421 10.9721C139.127 9.7273 140.497 9.02629 142.531 8.86907C144.565 8.71185 146.026 9.18733 146.914 10.2955C147.815 11.4027 148.361 13.1859 148.551 15.6453Z" fill="white"></path><path d="M156.897 22.0597L157.645 8.23989L160.52 8.39539L165.139 21.1434L165.558 21.166L166.232 8.70424L167.75 8.78631L167.003 22.6061L164.187 22.4539L159.488 9.70157L159.109 9.68105L158.435 22.1428L156.897 22.0597Z" fill="white"></path><path d="M178.765 24.0227L173.902 23.1529L176.339 9.52911L181.202 10.3989C183.42 10.7957 184.733 11.938 185.14 13.8259C185.379 14.9116 185.352 16.2748 185.059 17.9155C184.446 21.3411 183.207 23.3475 181.341 23.9349C180.595 24.1671 179.736 24.1964 178.765 24.0227ZM183.503 17.6373C183.971 15.0254 183.678 13.2934 182.625 12.4413C182.199 12.0943 181.645 11.8598 180.963 11.7377L177.616 11.139L175.658 22.0853L179.005 22.6839C181.328 23.0995 182.827 21.4173 183.503 17.6373Z" fill="white"></path><path d="M189.677 26.2626L193.348 12.9183L194.833 13.3267L191.162 26.6711L189.677 26.2626Z" fill="white"></path><path d="M206.041 31.2863C204.656 31.0712 203.451 30.7735 202.426 30.3932C201.401 30.013 200.62 29.5671 200.085 29.0556C199.566 28.5362 199.241 27.9178 199.109 27.2004C198.994 26.4752 199.009 25.7058 199.155 24.8922C199.317 24.0708 199.612 23.085 200.038 21.9349C200.465 20.7848 200.884 19.8454 201.297 19.1168C201.727 18.3802 202.222 17.7745 202.782 17.2997C203.354 16.8295 204.004 16.5728 204.731 16.5296C205.458 16.4865 206.322 16.6504 207.322 17.0213C208.322 17.3923 209.446 17.9657 210.694 18.7416L210.186 19.9395C209.007 19.2462 207.923 18.7163 206.936 18.35C205.561 17.8399 204.495 17.9139 203.739 18.572C203 19.2223 202.264 20.535 201.531 22.5101C201.165 23.4977 200.908 24.3054 200.761 24.9333C200.626 25.5658 200.586 26.1699 200.643 26.7455C200.704 27.3087 200.921 27.78 201.292 28.1594C201.68 28.531 202.312 28.8791 203.187 29.2037C204.074 29.533 205.16 29.8077 206.444 30.0278L206.041 31.2863Z" fill="white"></path><path d="M210.796 33.4828L216.659 20.9458L218.054 21.5982L212.191 34.1352L210.796 33.4828Z" fill="white"></path><path d="M222.907 31.5907C221.876 33.3356 221.363 34.7283 221.368 35.7687C221.38 36.7977 222.04 37.6987 223.348 38.4718C224.669 39.2517 225.773 39.4008 226.662 38.9191C227.562 38.4442 228.53 37.3285 229.568 35.5721C230.605 33.8156 231.126 32.3966 231.13 31.315C231.134 30.2333 230.488 29.3094 229.191 28.543C227.905 27.7835 226.789 27.6665 225.844 28.192C224.917 28.7129 223.938 29.8458 222.907 31.5907ZM230.945 36.3859C229.691 38.5096 228.443 39.8479 227.203 40.4006C225.963 40.9533 224.448 40.7007 222.657 39.6428C220.877 38.5916 219.937 37.3781 219.836 36.0022C219.735 34.6263 220.302 32.8936 221.536 30.8043C222.777 28.7035 224.041 27.3514 225.326 26.7481C226.619 26.1333 228.143 26.3447 229.9 27.3823C231.656 28.4199 232.58 29.6472 232.672 31.0643C232.776 32.4882 232.2 34.2621 230.945 36.3859Z" fill="white"></path><path d="M233.487 45.9831L241.991 35.0643L244.263 36.834L240.776 49.9366L241.107 50.1947L248.776 40.3489L249.975 41.2829L241.471 52.2017L239.246 50.4688L242.67 37.3171L242.37 37.0836L234.702 46.9294L233.487 45.9831Z" fill="white"></path><path d="M246.159 55.9314L258.607 48.7868L260.991 51.154L253.937 63.6531L252.859 62.5822L254.657 59.3512L250.456 55.1804L247.238 57.0023L246.159 55.9314ZM258.5 50.5408L251.669 54.4406L255.388 58.1324L259.238 51.2735L258.5 50.5408Z" fill="white"></path><path d="M262.557 73.6011L257.744 67.6933L268.475 58.9522L269.447 60.1462L259.787 68.0157L263.627 72.7296L262.557 73.6011Z" fill="white"></path><path d="M274.69 82.3092L275.901 81.606L278.944 86.8461L277.734 87.5493L274.69 82.3092Z" fill="white"></path><path d="M291.528 99.2322L292.839 98.7404L295.72 106.418L293.829 107.127L281.389 106.369L281.307 104.84L293.374 105.632L293.861 105.449L291.528 99.2322Z" fill="white"></path><path d="M288.871 131.043L288.001 126.18L301.625 123.743L302.495 128.606C302.892 130.824 302.275 132.451 300.646 133.488C299.71 134.089 298.422 134.536 296.782 134.829C293.356 135.442 291.044 134.975 289.847 133.428C289.37 132.809 289.045 132.014 288.871 131.043ZM296.503 133.274C299.115 132.807 300.638 131.931 301.072 130.648C301.25 130.129 301.278 129.528 301.156 128.845L300.558 125.498L289.611 127.456L290.21 130.803C290.626 133.126 292.723 133.95 296.503 133.274Z" fill="white"></path><path d="M290.584 142.394L304.374 141.221L304.504 142.756L290.714 143.929L290.584 142.394Z" fill="white"></path></svg>