<svg xmlns="http://www.w3.org/2000/svg" width="259" height="25" viewBox="0 0 259 25" fill="none"><path d="M237.852 16.405V11.0897C237.852 10.8572 237.897 10.6269 237.986 10.4121C238.075 10.1973 238.206 10.0021 238.37 9.83768C238.535 9.67328 238.73 9.54289 238.945 9.45395C239.16 9.36501 239.39 9.31927 239.622 9.31934H241.19C241.658 9.3203 242.107 9.50703 242.438 9.83854C242.769 10.1701 242.955 10.6193 242.955 11.0876V12.2189C242.955 12.6886 242.768 13.139 242.436 13.4711C242.104 13.8032 241.653 13.9898 241.184 13.9898H238.967" stroke="white" stroke-width="0.386569" stroke-linecap="round" stroke-linejoin="round"></path><path d="M243.395 9.31836H244.074C244.267 9.31836 244.451 9.39494 244.588 9.53125C244.724 9.66756 244.801 9.85244 244.801 10.0452V14.0165" stroke="white" stroke-width="0.386569" stroke-linecap="round" stroke-linejoin="round"></path><path d="M244.655 8.70313L244.347 8.39431C244.328 8.37611 244.314 8.35449 244.304 8.33068C244.294 8.30687 244.289 8.28135 244.289 8.25558C244.289 8.2298 244.294 8.20428 244.304 8.18047C244.314 8.15667 244.328 8.13505 244.347 8.11684L244.655 7.80855C244.673 7.7903 244.695 7.77582 244.719 7.76594C244.742 7.75606 244.768 7.75098 244.794 7.75098C244.819 7.75098 244.845 7.75606 244.869 7.76594C244.893 7.77582 244.914 7.7903 244.932 7.80855L245.241 8.11684C245.259 8.13505 245.274 8.15667 245.284 8.18047C245.294 8.20428 245.299 8.2298 245.299 8.25558C245.299 8.28135 245.294 8.30687 245.284 8.33068C245.274 8.35449 245.259 8.37611 245.241 8.39431L244.932 8.70313C244.914 8.72138 244.893 8.73586 244.869 8.74574C244.845 8.75561 244.819 8.7607 244.794 8.7607C244.768 8.7607 244.742 8.75561 244.719 8.74574C244.695 8.73586 244.673 8.72138 244.655 8.70313" fill="white"></path><path d="M246.109 9.31445H246.784C247.132 9.31451 247.465 9.45247 247.71 9.698L249.29 11.2766C249.338 11.3253 249.396 11.364 249.459 11.3904C249.523 11.4168 249.591 11.4304 249.66 11.4304C249.729 11.4304 249.797 11.4168 249.86 11.3904C249.924 11.364 249.981 11.3253 250.03 11.2766L251.605 9.70374C251.726 9.58212 251.871 9.48565 252.03 9.41984C252.189 9.35403 252.359 9.32017 252.531 9.3202H253.08" stroke="white" stroke-width="0.386569" stroke-linecap="round" stroke-linejoin="round"></path><path d="M246.109 13.9806H246.784C247.132 13.9806 247.465 13.8426 247.71 13.5971L249.29 12.019C249.338 11.9703 249.396 11.9316 249.459 11.9052C249.523 11.8788 249.591 11.8652 249.66 11.8652C249.729 11.8652 249.797 11.8788 249.86 11.9052C249.924 11.9316 249.981 11.9703 250.03 12.019L251.605 13.5913C251.726 13.713 251.871 13.8094 252.03 13.8752C252.189 13.941 252.359 13.9749 252.531 13.9749H253.08" stroke="white" stroke-width="0.386569" stroke-linecap="round" stroke-linejoin="round"></path><path d="M233.827 14.99C233.66 14.9905 233.495 14.9579 233.341 14.8942C233.187 14.8304 233.047 14.7367 232.93 14.6185L231.634 13.3262C231.589 13.2823 231.528 13.2578 231.464 13.2578C231.401 13.2578 231.34 13.2823 231.294 13.3262L229.994 14.6258C229.876 14.744 229.737 14.8377 229.583 14.9015C229.429 14.9653 229.263 14.9978 229.097 14.9973H228.842L230.482 16.6381C230.728 16.884 231.062 17.0222 231.41 17.0222C231.758 17.0222 232.091 16.884 232.338 16.6381L233.983 14.9926L233.827 14.99Z" fill="white"></path><path d="M229.098 10.4076C229.264 10.4072 229.429 10.4398 229.583 10.5036C229.737 10.5673 229.877 10.661 229.995 10.7791L231.295 12.0792C231.34 12.1242 231.401 12.1495 231.465 12.1495C231.529 12.1495 231.59 12.1242 231.635 12.0792L232.931 10.7838C233.048 10.6657 233.188 10.572 233.342 10.5083C233.496 10.4445 233.661 10.4119 233.828 10.4123H233.984L232.34 8.76731C232.218 8.64541 232.073 8.54872 231.914 8.48275C231.755 8.41677 231.584 8.38281 231.412 8.38281C231.239 8.38281 231.069 8.41677 230.91 8.48275C230.75 8.54872 230.606 8.64541 230.484 8.76731L228.844 10.4076H229.098Z" fill="white"></path><path d="M235.345 11.7735L234.352 10.7807C234.33 10.7897 234.306 10.7944 234.282 10.7948H233.83C233.594 10.7958 233.369 10.8897 233.203 11.0561L231.905 12.3488C231.848 12.4066 231.779 12.4524 231.704 12.4836C231.628 12.5148 231.547 12.5308 231.466 12.5307C231.301 12.531 231.143 12.4657 231.026 12.3493L229.726 11.0493C229.559 10.8829 229.334 10.789 229.099 10.788H228.543C228.52 10.7876 228.498 10.783 228.476 10.7744L227.478 11.7725C227.356 11.8943 227.26 12.0389 227.194 12.1981C227.128 12.3573 227.094 12.5279 227.094 12.7002C227.094 12.8725 227.128 13.0432 227.194 13.2024C227.26 13.3616 227.356 13.5062 227.478 13.628L228.476 14.626C228.498 14.6175 228.52 14.6129 228.543 14.6125H229.099C229.334 14.6113 229.559 14.5174 229.726 14.3512L231.026 13.0511C231.144 12.9381 231.302 12.875 231.465 12.875C231.629 12.875 231.787 12.9381 231.905 13.0511L233.201 14.3465C233.367 14.5127 233.592 14.6066 233.828 14.6078H234.28C234.304 14.608 234.328 14.613 234.35 14.6224L235.343 13.6296C235.589 13.3834 235.727 13.0497 235.727 12.7018C235.727 12.3539 235.589 12.0202 235.343 11.774" fill="white"></path><path d="M239.203 15.9527C239.12 15.9564 239.039 15.9688 238.959 15.9898V16.3138C239.02 16.3352 239.084 16.346 239.149 16.3457C239.311 16.3457 239.388 16.2908 239.388 16.1476C239.388 16.0133 239.325 15.9527 239.203 15.9527V15.9527ZM238.904 16.5542V15.9141H238.949L238.954 15.9417C239.037 15.9196 239.122 15.9059 239.207 15.901C239.267 15.8969 239.326 15.9139 239.374 15.9491C239.4 15.9746 239.42 16.0057 239.433 16.04C239.445 16.0744 239.45 16.1112 239.447 16.1476C239.45 16.1883 239.442 16.229 239.423 16.2654C239.405 16.3018 239.377 16.3325 239.342 16.354C239.284 16.3829 239.219 16.3973 239.154 16.3958C239.087 16.3954 239.022 16.3854 238.959 16.366V16.5542H238.904Z" fill="white"></path><path d="M239.852 15.9514C239.69 15.9514 239.618 16.0037 239.618 16.1453C239.618 16.2869 239.689 16.3459 239.852 16.3459C240.015 16.3459 240.086 16.2937 240.086 16.1526C240.086 16.0115 240.015 15.9514 239.852 15.9514V15.9514ZM240.061 16.3459C239.999 16.3846 239.926 16.4029 239.852 16.3982C239.779 16.4026 239.706 16.3843 239.643 16.3459C239.614 16.3227 239.591 16.2925 239.576 16.258C239.562 16.2236 239.556 16.1861 239.56 16.1489C239.556 16.1117 239.562 16.0742 239.577 16.0397C239.591 16.0053 239.614 15.9749 239.643 15.9514C239.706 15.9127 239.779 15.8945 239.852 15.8992C239.926 15.8946 239.999 15.9128 240.061 15.9514C240.09 15.9747 240.113 16.0049 240.128 16.0391C240.142 16.0734 240.148 16.1108 240.145 16.1479C240.148 16.1852 240.143 16.2229 240.128 16.2575C240.113 16.292 240.091 16.3224 240.061 16.3459" fill="white"></path><path d="M240.831 16.3834L240.65 15.9946H240.647L240.468 16.3834H240.422L240.229 15.9131H240.289L240.45 16.3066H240.453L240.628 15.9131H240.68L240.859 16.3066H240.863L241.02 15.9131H241.078L240.885 16.3834H240.831Z" fill="white"></path><path d="M241.423 15.9507C241.273 15.9507 241.222 16.0176 241.214 16.1143H241.635C241.631 16.0072 241.576 15.9507 241.426 15.9507H241.423ZM241.426 16.3964C241.357 16.4038 241.288 16.3852 241.231 16.3442C241.204 16.3194 241.183 16.2889 241.17 16.2549C241.156 16.2209 241.15 16.1843 241.153 16.1477C241.151 16.1098 241.158 16.0719 241.173 16.0371C241.188 16.0023 241.211 15.9714 241.24 15.9471C241.295 15.913 241.359 15.8965 241.423 15.9C241.489 15.896 241.554 15.9118 241.611 15.9455C241.679 15.991 241.692 16.0709 241.692 16.1618H241.21C241.21 16.258 241.244 16.3437 241.426 16.3437C241.507 16.3417 241.588 16.3326 241.668 16.3165V16.3656C241.587 16.3826 241.504 16.3924 241.422 16.3949" fill="white"></path><path d="M241.85 16.3828V15.9125H241.895L241.899 15.9402C241.974 15.9155 242.053 15.9018 242.132 15.8994H242.139V15.9517H242.126C242.05 15.9533 241.976 15.9658 241.904 15.9888V16.3817L241.85 16.3828Z" fill="white"></path><path d="M242.457 15.9501C242.306 15.9501 242.255 16.017 242.248 16.1137H242.669C242.665 16.0066 242.61 15.9501 242.46 15.9501H242.457ZM242.46 16.3958C242.391 16.403 242.322 16.3844 242.265 16.3436C242.24 16.3186 242.22 16.2881 242.207 16.2544C242.194 16.2207 242.189 16.1846 242.192 16.1487C242.19 16.1108 242.197 16.0729 242.212 16.0381C242.227 16.0032 242.25 15.9724 242.28 15.948C242.334 15.9139 242.398 15.8975 242.462 15.901C242.528 15.897 242.593 15.9128 242.649 15.9465C242.717 15.9919 242.73 16.0719 242.73 16.1628H242.25C242.25 16.2589 242.283 16.3446 242.465 16.3446C242.546 16.3427 242.628 16.3336 242.707 16.3175V16.3666C242.626 16.3835 242.543 16.3933 242.46 16.3958" fill="white"></path><path d="M243.325 15.9833C243.264 15.9621 243.2 15.9515 243.135 15.9519C242.973 15.9519 242.896 16.0068 242.896 16.1495C242.896 16.2921 242.959 16.3444 243.082 16.3444C243.164 16.3405 243.245 16.3284 243.325 16.3083V15.9833ZM243.335 16.3836L243.33 16.3553C243.247 16.3776 243.163 16.3915 243.077 16.3966C243.017 16.4012 242.958 16.3839 242.911 16.348C242.884 16.3226 242.864 16.2916 242.851 16.2572C242.838 16.2228 242.834 16.186 242.837 16.1495C242.834 16.1089 242.842 16.0683 242.86 16.0321C242.879 15.9959 242.907 15.9655 242.942 15.9441C243 15.9145 243.065 15.9 243.131 15.9018C243.197 15.9025 243.262 15.9126 243.325 15.9316V15.7168H243.38V16.3836H243.335Z" fill="white"></path><path d="M244.184 15.9535C244.102 15.9572 244.02 15.9696 243.94 15.9906V16.3135C244.001 16.3357 244.065 16.3469 244.13 16.3465C244.293 16.3465 244.369 16.2916 244.369 16.1484C244.369 16.0141 244.306 15.9535 244.184 15.9535V15.9535ZM244.324 16.3548C244.265 16.3837 244.201 16.398 244.135 16.3966C244.064 16.3959 243.994 16.3839 243.926 16.3611V16.3836H243.889V15.7168H243.941V15.9389C244.022 15.9181 244.105 15.9052 244.189 15.9002C244.248 15.8961 244.307 15.9131 244.355 15.9483C244.382 15.9738 244.402 16.0049 244.414 16.0393C244.427 16.0736 244.432 16.1104 244.428 16.1468C244.432 16.1875 244.423 16.2283 244.405 16.2647C244.387 16.301 244.359 16.3317 244.324 16.3532" fill="white"></path><path d="M244.499 16.5657V16.5134C244.526 16.5134 244.552 16.5181 244.569 16.5181C244.601 16.5207 244.632 16.5126 244.659 16.4951C244.685 16.4776 244.705 16.4516 244.716 16.4214L244.733 16.3843L244.488 15.9141H244.552L244.761 16.3185H244.764L244.964 15.9141H245.026L244.765 16.4403C244.716 16.5359 244.664 16.5672 244.569 16.5672C244.546 16.5683 244.522 16.5678 244.499 16.5657Z" fill="white"></path><path d="M245.781 16.1155H245.599V16.2801H245.782C245.907 16.2801 245.954 16.266 245.954 16.197C245.954 16.128 245.889 16.1155 245.781 16.1155V16.1155ZM245.748 15.849H245.599V16.0162H245.748C245.872 16.0162 245.921 16.0015 245.921 15.9315C245.921 15.8615 245.859 15.849 245.748 15.849V15.849ZM246.03 16.3386C245.963 16.3809 245.882 16.383 245.734 16.383H245.457V15.7471H245.728C245.855 15.7471 245.933 15.7471 245.998 15.7878C246.019 15.8007 246.037 15.8194 246.049 15.8417C246.06 15.8641 246.065 15.8892 246.063 15.9143C246.065 15.9457 246.056 15.9767 246.038 16.0023C246.019 16.0279 245.993 16.0466 245.963 16.0554V16.059C246.044 16.0773 246.097 16.1191 246.097 16.2095C246.099 16.2352 246.094 16.2609 246.082 16.2837C246.07 16.3065 246.052 16.3255 246.03 16.3386" fill="white"></path><path d="M246.653 16.1866C246.601 16.1819 246.543 16.1793 246.484 16.1793C246.389 16.1793 246.355 16.1987 246.355 16.2425C246.355 16.2864 246.383 16.3053 246.456 16.3053C246.523 16.3029 246.589 16.2936 246.653 16.2776V16.1866ZM246.681 16.3836L246.677 16.3554C246.594 16.379 246.509 16.3928 246.423 16.3967C246.373 16.4 246.324 16.388 246.281 16.3622C246.264 16.3491 246.25 16.3319 246.241 16.3121C246.232 16.2923 246.227 16.2706 246.229 16.2488C246.228 16.2222 246.234 16.1958 246.249 16.1731C246.263 16.1504 246.283 16.1326 246.308 16.1218C246.364 16.1008 246.424 16.0919 246.484 16.0957C246.533 16.0957 246.599 16.0983 246.654 16.102V16.0957C246.654 16.0226 246.606 15.9985 246.473 15.9985C246.421 15.9985 246.36 16.0011 246.301 16.0069V15.9118C246.367 15.9066 246.441 15.9029 246.502 15.9029C246.577 15.8963 246.653 15.9113 246.72 15.9463C246.773 15.9844 246.784 16.0372 246.784 16.1072V16.3847L246.681 16.3836Z" fill="white"></path><path d="M247.395 16.3836V16.1223C247.395 16.0372 247.351 16.0063 247.273 16.0063C247.209 16.0091 247.145 16.0191 247.082 16.0361V16.3815H246.953V15.9112H247.058L247.062 15.9405C247.144 15.9168 247.228 15.9026 247.313 15.8982C247.37 15.8937 247.428 15.9108 247.474 15.9462C247.493 15.9653 247.507 15.9884 247.516 16.0138C247.525 16.0392 247.529 16.0663 247.526 16.0931V16.3799L247.395 16.3836Z" fill="white"></path><path d="M247.894 16.3961C247.832 16.4009 247.77 16.3833 247.72 16.3464C247.693 16.3212 247.673 16.2902 247.66 16.2557C247.647 16.2213 247.642 16.1844 247.646 16.1479C247.643 16.1091 247.651 16.0704 247.667 16.0353C247.684 16.0003 247.71 15.9701 247.741 15.9477C247.804 15.9126 247.876 15.8964 247.947 15.9012C247.999 15.9012 248.054 15.9049 248.112 15.9101V16.0104C248.065 16.0062 248.008 16.0021 247.963 16.0021C247.839 16.0021 247.78 16.0413 247.78 16.1489C247.78 16.2565 247.824 16.2936 247.926 16.2936C247.992 16.2916 248.058 16.2835 248.123 16.2696V16.3663C248.048 16.3835 247.971 16.3935 247.894 16.3961Z" fill="white"></path><path d="M248.51 15.9999C248.386 15.9999 248.331 16.0391 248.331 16.1457C248.331 16.2523 248.383 16.2977 248.51 16.2977C248.637 16.2977 248.688 16.2596 248.688 16.153C248.688 16.0464 248.635 15.9999 248.51 15.9999V15.9999ZM248.735 16.3468C248.667 16.3855 248.589 16.4028 248.51 16.3965C248.432 16.4026 248.353 16.3853 248.285 16.3468C248.254 16.3244 248.23 16.2944 248.214 16.2598C248.199 16.2252 248.193 16.1871 248.196 16.1493C248.193 16.1114 248.199 16.0732 248.214 16.0384C248.23 16.0036 248.254 15.9734 248.285 15.9508C248.353 15.9125 248.432 15.8954 248.51 15.9016C248.588 15.8957 248.667 15.9127 248.735 15.9508C248.765 15.9733 248.789 16.0034 248.805 16.038C248.82 16.0726 248.826 16.1106 248.822 16.1483C248.826 16.1861 248.82 16.2242 248.805 16.259C248.789 16.2937 248.765 16.324 248.735 16.3468" fill="white"></path><path d="M249.578 16.3965C249.497 16.4017 249.416 16.3782 249.35 16.3302C249.273 16.2674 249.25 16.1697 249.25 16.0647C249.248 16.0125 249.258 15.9604 249.281 15.9132C249.303 15.866 249.337 15.8252 249.379 15.7945C249.462 15.7492 249.555 15.7283 249.649 15.7345C249.719 15.7345 249.791 15.7392 249.87 15.7454V15.8599C249.803 15.8541 249.719 15.8494 249.654 15.8494C249.473 15.8494 249.396 15.9184 249.396 16.0647C249.396 16.211 249.467 16.281 249.601 16.281C249.696 16.2779 249.791 16.2651 249.884 16.2429V16.3568C249.784 16.3803 249.681 16.3938 249.578 16.397" fill="white"></path><path d="M250.271 15.9849C250.162 15.9849 250.12 16.0236 250.114 16.0951H250.427C250.424 16.0189 250.379 15.9849 250.271 15.9849ZM250.251 16.3961C250.181 16.4025 250.111 16.384 250.053 16.3439C250.026 16.319 250.006 16.2885 249.993 16.2545C249.98 16.2206 249.974 16.1842 249.977 16.1479C249.975 16.1104 249.982 16.0729 249.998 16.0386C250.013 16.0042 250.036 15.974 250.065 15.9504C250.127 15.9133 250.199 15.8961 250.271 15.9013C250.341 15.8969 250.412 15.9132 250.474 15.9483C250.549 16.0006 250.555 16.0831 250.556 16.1798H250.111C250.114 16.2514 250.152 16.2974 250.284 16.2974C250.367 16.2955 250.451 16.2875 250.533 16.2733V16.3653C250.44 16.383 250.346 16.3933 250.251 16.3961Z" fill="white"></path><path d="M251.137 16.3836V16.1223C251.137 16.0372 251.094 16.0063 251.016 16.0063C250.951 16.0091 250.887 16.0191 250.825 16.0361V16.3815H250.693V15.9112H250.8L250.805 15.9405C250.887 15.9168 250.971 15.9026 251.055 15.8982C251.113 15.8937 251.171 15.9108 251.216 15.9462C251.235 15.9653 251.25 15.9884 251.259 16.0138C251.268 16.0392 251.271 16.0663 251.269 16.0931V16.3799L251.137 16.3836Z" fill="white"></path><path d="M251.641 16.3964C251.612 16.3992 251.582 16.3945 251.556 16.3828C251.529 16.3711 251.506 16.3527 251.488 16.3295C251.462 16.2868 251.45 16.2372 251.454 16.1874V16.0118H251.359V15.9146H251.454L251.468 15.7725H251.584V15.9146H251.769V16.0118H251.584V16.1623C251.582 16.1926 251.587 16.2231 251.597 16.2516C251.605 16.2668 251.618 16.2791 251.633 16.2869C251.648 16.2947 251.665 16.2975 251.682 16.295C251.714 16.2945 251.745 16.2913 251.776 16.2856V16.3797C251.731 16.3894 251.686 16.395 251.641 16.3964" fill="white"></path><path d="M251.896 16.3828V15.9125H252.001L252.006 15.9417C252.081 15.9165 252.159 15.9022 252.238 15.8994H252.254V16.0112C252.239 16.0112 252.222 16.0112 252.209 16.0112C252.147 16.0115 252.085 16.0195 252.025 16.0353V16.3817L251.896 16.3828Z" fill="white"></path><path d="M252.731 16.1866C252.676 16.1819 252.621 16.1793 252.562 16.1793C252.466 16.1793 252.433 16.1987 252.433 16.2426C252.433 16.2864 252.461 16.3053 252.534 16.3053C252.601 16.3029 252.667 16.2936 252.731 16.2776V16.1866ZM252.759 16.3836L252.754 16.357C252.671 16.3805 252.585 16.3944 252.499 16.3983C252.449 16.4015 252.4 16.3895 252.357 16.3638C252.34 16.3506 252.326 16.3334 252.317 16.3136C252.308 16.2938 252.304 16.2721 252.305 16.2504C252.304 16.223 252.311 16.1959 252.326 16.1728C252.341 16.1498 252.362 16.1319 252.388 16.1218C252.444 16.1013 252.504 16.0927 252.563 16.0968C252.612 16.0968 252.679 16.0994 252.733 16.103V16.0957C252.733 16.0226 252.685 15.9985 252.553 15.9985C252.501 15.9985 252.44 16.0011 252.38 16.0069V15.9118C252.447 15.9066 252.521 15.9029 252.582 15.9029C252.657 15.8962 252.733 15.9113 252.8 15.9463C252.852 15.9844 252.864 16.0372 252.864 16.1072V16.3847L252.759 16.3836Z" fill="white"></path><path d="M253.031 15.7168H253.162V16.3836H253.031V15.7168Z" fill="white"></path><path fill-rule="evenodd" clip-rule="evenodd" d="M202.001 16.2599V13.1482H203.607C204.266 13.1482 204.821 12.9276 205.274 12.4927L205.382 12.3825C206.21 11.482 206.155 10.0793 205.274 9.24625C204.833 8.80522 204.229 8.56632 203.607 8.57857H201.029V16.2599H202.001ZM202.001 12.2046V9.52167H203.631C203.982 9.52167 204.314 9.65643 204.561 9.90144C205.087 10.416 205.099 11.2735 204.592 11.8065C204.344 12.0699 203.994 12.2169 203.631 12.2046H202.001ZM209.917 11.4146C209.5 11.0287 208.932 10.8327 208.214 10.8327C207.29 10.8327 206.596 11.1758 206.137 11.8557L206.994 12.4008C207.308 11.9353 207.737 11.7025 208.28 11.7025C208.625 11.7025 208.957 11.8312 209.216 12.0639C209.47 12.2845 209.615 12.603 209.615 12.9399V13.1665C209.24 12.9583 208.769 12.848 208.19 12.848C207.514 12.848 206.97 13.0073 206.566 13.3319C206.161 13.6566 205.956 14.0853 205.956 14.6305C205.944 15.1267 206.155 15.5983 206.529 15.9169C206.91 16.2599 207.393 16.4314 207.96 16.4314C208.631 16.4314 209.162 16.1312 209.566 15.5309H209.609V16.2599H210.538V13.0195C210.538 12.3396 210.333 11.8005 209.917 11.4146ZM207.278 15.2922C207.079 15.1452 206.958 14.9063 206.958 14.649C206.958 14.3611 207.091 14.1222 207.351 13.9324C207.616 13.7425 207.949 13.6445 208.341 13.6445C208.885 13.6383 209.307 13.7608 209.609 14.0059C209.609 14.4224 209.446 14.7838 209.126 15.0901C208.836 15.3841 208.444 15.5495 208.033 15.5495C207.761 15.5556 207.496 15.4637 207.278 15.2922ZM212.629 18.5689L215.877 11.004H214.82L213.317 14.7772H213.299L211.759 11.004H210.703L212.834 15.9227L211.626 18.5689H212.629Z" fill="white"></path><path d="M198.647 12.4724C198.647 12.1723 198.623 11.8721 198.574 11.5781H194.475V13.2749H196.823C196.727 13.82 196.413 14.3101 195.954 14.6164V15.7189H197.355C198.176 14.9533 198.647 13.82 198.647 12.4724Z" fill="white"></path><path d="M194.476 16.7847C195.647 16.7847 196.637 16.3927 197.356 15.7189L195.955 14.6163C195.563 14.8859 195.062 15.039 194.476 15.039C193.341 15.039 192.381 14.2611 192.037 13.2197H190.594V14.3591C191.33 15.8475 192.834 16.7847 194.476 16.7847Z" fill="white"></path><path d="M192.037 13.2203C191.856 12.6752 191.856 12.081 192.037 11.5297V10.3965H190.593C189.971 11.64 189.971 13.1101 190.593 14.3535L192.037 13.2203Z" fill="white"></path><path d="M194.476 9.70989C195.098 9.69764 195.696 9.93653 196.142 10.3714L197.386 9.10959C196.595 8.36229 195.557 7.95188 194.476 7.96413C192.834 7.96413 191.33 8.90745 190.594 10.3959L192.037 11.5353C192.381 10.4878 193.341 9.70989 194.476 9.70989Z" fill="white"></path><path fill-rule="evenodd" clip-rule="evenodd" d="M159.289 15.7256H157.686C157.577 15.7256 157.483 15.8053 157.466 15.9135L156.818 20.0224C156.805 20.1035 156.868 20.1766 156.95 20.1766H157.715C157.825 20.1766 157.918 20.0969 157.935 19.9885L158.11 18.8803C158.127 18.7717 158.22 18.6921 158.33 18.6921H158.837C159.893 18.6921 160.502 18.1813 160.661 17.1692C160.733 16.7264 160.664 16.3784 160.457 16.1347C160.229 15.8672 159.825 15.7256 159.289 15.7256ZM159.473 17.2263C159.386 17.8013 158.946 17.8013 158.522 17.8013H158.28L158.45 16.7274C158.46 16.6626 158.516 16.6148 158.581 16.6148H158.692C158.982 16.6148 159.255 16.6148 159.396 16.7797C159.48 16.8782 159.505 17.0243 159.473 17.2263ZM164.078 17.2079H163.311C163.246 17.2079 163.189 17.2557 163.179 17.3206L163.145 17.5352L163.091 17.4575C162.925 17.2163 162.555 17.1358 162.185 17.1358C161.337 17.1358 160.613 17.778 160.472 18.6789C160.399 19.1282 160.503 19.5579 160.758 19.8576C160.992 20.1331 161.326 20.2479 161.724 20.2479C162.408 20.2479 162.786 19.8086 162.786 19.8086L162.752 20.0219C162.739 20.1034 162.802 20.1765 162.884 20.1765H163.575C163.685 20.1765 163.778 20.0968 163.795 19.9884L164.21 17.3621C164.223 17.2813 164.16 17.2079 164.078 17.2079ZM163.009 18.7013C162.935 19.1397 162.587 19.434 162.143 19.434C161.92 19.434 161.742 19.3625 161.628 19.2271C161.514 19.0927 161.471 18.9012 161.507 18.688C161.577 18.2533 161.93 17.9495 162.367 17.9495C162.585 17.9495 162.762 18.0218 162.879 18.1585C162.996 18.2965 163.042 18.4891 163.009 18.7013ZM167.394 17.2078H168.165C168.273 17.2078 168.336 17.3289 168.275 17.4175L165.71 21.1194C165.669 21.1793 165.6 21.215 165.527 21.215H164.757C164.648 21.215 164.585 21.0929 164.648 21.0041L165.447 19.8769L164.597 17.3844C164.568 17.2978 164.632 17.2078 164.724 17.2078H165.482C165.58 17.2078 165.667 17.2724 165.695 17.3666L166.146 18.872L167.21 17.3055C167.251 17.2443 167.32 17.2078 167.394 17.2078Z" fill="white"></path><path fill-rule="evenodd" clip-rule="evenodd" d="M175.755 20.0217L176.412 15.8376C176.422 15.7726 176.479 15.7248 176.544 15.7246H177.284C177.366 15.7246 177.429 15.7979 177.416 15.879L176.767 19.9877C176.75 20.0961 176.657 20.1758 176.547 20.1758H175.886C175.804 20.1758 175.742 20.1028 175.755 20.0217ZM170.718 15.7248H169.116C169.006 15.7248 168.913 15.8045 168.896 15.9127L168.248 20.0217C168.235 20.1028 168.298 20.1758 168.38 20.1758H169.202C169.278 20.1758 169.344 20.1201 169.356 20.0442L169.539 18.8795C169.556 18.771 169.65 18.6914 169.759 18.6914H170.266C171.322 18.6914 171.931 18.1806 172.09 17.1684C172.162 16.7256 172.093 16.3777 171.886 16.1339C171.658 15.8664 171.255 15.7248 170.718 15.7248ZM170.903 17.2256C170.816 17.8005 170.376 17.8005 169.951 17.8005H169.71L169.88 16.7267C169.89 16.6618 169.946 16.614 170.011 16.614H170.122C170.411 16.614 170.685 16.614 170.826 16.7789C170.91 16.8774 170.935 17.0236 170.903 17.2256ZM175.508 17.2071H174.741C174.675 17.2071 174.619 17.2549 174.609 17.3199L174.575 17.5345L174.521 17.4567C174.355 17.2156 173.985 17.135 173.615 17.135C172.767 17.135 172.043 17.7772 171.902 18.6781C171.829 19.1275 171.933 19.5572 172.188 19.8569C172.422 20.1324 172.756 20.2472 173.154 20.2472C173.838 20.2472 174.216 19.8078 174.216 19.8078L174.182 20.0211C174.169 20.1027 174.232 20.1757 174.314 20.1757H175.005C175.115 20.1757 175.208 20.096 175.225 19.9876L175.64 17.3613C175.653 17.2805 175.59 17.2071 175.508 17.2071ZM174.438 18.7006C174.365 19.139 174.016 19.4332 173.572 19.4332C173.35 19.4332 173.172 19.3618 173.057 19.2264C172.944 19.0919 172.901 18.9004 172.937 18.6873C173.006 18.2526 173.36 17.9488 173.797 17.9488C174.015 17.9488 174.192 18.0211 174.308 18.1577C174.426 18.2957 174.472 18.4883 174.438 18.7006Z" fill="white"></path><path d="M165.218 14.2557L165.415 13.0045L164.976 12.9943H162.881L164.337 3.7611C164.341 3.73322 164.356 3.70724 164.378 3.68878C164.399 3.67033 164.427 3.66016 164.455 3.66016H167.988C169.161 3.66016 169.971 3.90424 170.393 4.38598C170.591 4.61199 170.718 4.84815 170.779 5.10805C170.843 5.38076 170.844 5.70658 170.781 6.10396L170.777 6.13296V6.38758L170.975 6.49983C171.142 6.58834 171.274 6.68967 171.376 6.80568C171.546 6.99891 171.655 7.2445 171.702 7.53565C171.749 7.83511 171.734 8.19143 171.655 8.59484C171.565 9.05889 171.419 9.46305 171.221 9.79377C171.04 10.0985 170.808 10.3512 170.534 10.5471C170.272 10.7332 169.96 10.8744 169.608 10.9649C169.267 11.0537 168.878 11.0986 168.451 11.0986H168.176C167.979 11.0986 167.788 11.1694 167.639 11.2963C167.488 11.4259 167.389 11.6029 167.358 11.7965L167.338 11.9092L166.989 14.1144L166.974 14.1954C166.97 14.2211 166.962 14.2339 166.952 14.2426C166.942 14.2504 166.929 14.2557 166.916 14.2557H165.218Z" fill="white"></path><path d="M171.163 6.16211C171.152 6.22953 171.14 6.29846 171.127 6.36927C170.661 8.76147 169.067 9.58788 167.031 9.58788H165.994C165.745 9.58788 165.536 9.76867 165.497 10.0143L164.966 13.3802L164.816 14.3342C164.791 14.4954 164.915 14.6408 165.078 14.6408H166.916C167.134 14.6408 167.319 14.4826 167.353 14.268L167.371 14.1745L167.717 11.9778L167.739 11.8573C167.773 11.6419 167.959 11.4837 168.176 11.4837H168.451C170.233 11.4837 171.627 10.7605 172.035 8.66768C172.205 7.79344 172.117 7.06347 171.666 6.55007C171.53 6.39526 171.361 6.26682 171.163 6.16211Z" fill="white"></path><path d="M170.675 5.96802C170.604 5.9473 170.53 5.92846 170.455 5.91152C170.379 5.89495 170.302 5.88026 170.222 5.86745C169.942 5.82225 169.636 5.80078 169.308 5.80078H166.539C166.471 5.80078 166.406 5.81622 166.348 5.8441C166.22 5.90549 166.125 6.02641 166.102 6.17443L165.513 9.90568L165.496 10.0145C165.535 9.76894 165.745 9.58814 165.994 9.58814H167.03C169.066 9.58814 170.66 8.76137 171.126 6.36954C171.14 6.29873 171.152 6.2298 171.162 6.16238C171.044 6.09985 170.917 6.04637 170.779 6.00078C170.745 5.98949 170.71 5.97857 170.675 5.96802Z" fill="white"></path><path d="M166.104 6.17436C166.127 6.02632 166.222 5.90542 166.349 5.84439C166.408 5.81652 166.472 5.80108 166.54 5.80108H169.309C169.638 5.80108 169.944 5.82254 170.223 5.86775C170.303 5.88055 170.381 5.89524 170.456 5.91181C170.532 5.92877 170.605 5.9476 170.676 5.96831C170.712 5.97886 170.747 5.98978 170.781 6.00071C170.919 6.04628 171.046 6.10015 171.164 6.1623C171.303 5.27827 171.163 4.67636 170.685 4.13132C170.158 3.5313 169.207 3.27441 167.99 3.27441H164.457C164.208 3.27441 163.996 3.4552 163.958 3.70117L162.486 13.0293C162.457 13.2138 162.6 13.3804 162.786 13.3804H164.967L165.515 9.90559L166.104 6.17436Z" fill="white"></path><path fill-rule="evenodd" clip-rule="evenodd" d="M95.3778 19.3976C99.2598 19.3976 102.407 16.2141 102.407 12.2872C102.407 8.3602 99.2598 5.17676 95.3778 5.17676C93.638 5.17676 92.0459 5.81621 90.8185 6.87545C89.5911 5.81629 87.999 5.1769 86.2593 5.1769C82.3774 5.1769 79.2305 8.36034 79.2305 12.2873C79.2305 16.2143 82.3774 19.3977 86.2593 19.3977C87.9991 19.3977 89.5913 18.7583 90.8186 17.699C92.046 18.7582 93.6381 19.3976 95.3778 19.3976Z" fill="white"></path><path fill-rule="evenodd" clip-rule="evenodd" d="M90.8184 17.699C92.3296 16.3948 93.2879 14.4542 93.2879 12.2872C93.2879 10.1202 92.3296 8.17956 90.8184 6.87538C92.0457 5.81618 93.6379 5.17676 95.3776 5.17676C99.2595 5.17676 102.406 8.3602 102.406 12.2872C102.406 16.2141 99.2595 19.3976 95.3776 19.3976C93.6379 19.3976 92.0457 18.7582 90.8184 17.699Z" fill="white"></path><path fill-rule="evenodd" clip-rule="evenodd" d="M90.8172 17.6986C92.3285 16.3944 93.2867 14.4538 93.2867 12.2868C93.2867 10.1198 92.3285 8.17918 90.8172 6.875C89.3059 8.17918 88.3477 10.1198 88.3477 12.2868C88.3477 14.4538 89.3059 16.3944 90.8172 17.6986Z" fill="white"></path><path fill-rule="evenodd" clip-rule="evenodd" d="M118.072 8.78125L114.699 16.2458H118.737L119.238 15.0556H120.382L120.883 16.2458H125.327V15.3374L125.724 16.2458H128.023L128.419 15.3182V16.2458H137.663L138.787 15.0865L139.839 16.2458L144.587 16.2554L141.203 12.5343L144.587 8.78125H139.913L138.819 9.91907L137.799 8.78125H127.743L126.88 10.7079L125.996 8.78125H121.966V9.6587L121.518 8.78125H118.072ZM131.876 9.84097H137.184L138.808 11.5947L140.484 9.84097H142.107L139.641 12.533L142.107 15.1941H140.41L138.787 13.42L137.102 15.1941H131.876V9.84097ZM133.187 11.9282V10.9504V10.9495H136.499L137.944 12.5132L136.435 14.0855H133.187V13.018H136.083V11.9282H133.187ZM118.853 9.84097H120.821L123.059 14.9027V9.84097H125.215L126.943 13.4702L128.536 9.84097H130.681V15.1972H129.376L129.365 11.0001L127.462 15.1972H126.294L124.38 11.0001V15.1972H121.695L121.185 13.9964H118.435L117.927 15.1962H116.488L118.853 9.84097ZM118.905 12.8864L119.811 10.7473L120.716 12.8864H118.905Z" fill="white"></path><path fill-rule="evenodd" clip-rule="evenodd" d="M49.155 16.7725H46.971L45.3332 10.5244C45.2555 10.237 45.0904 9.98288 44.8476 9.86312C44.2417 9.56217 43.5741 9.32266 42.8457 9.20186V8.96131H46.364C46.8496 8.96131 47.2138 9.32266 47.2745 9.74233L48.1242 14.2493L50.3072 8.96131H52.4305L49.155 16.7725ZM53.6446 16.7725H51.582L53.2805 8.96131H55.3431L53.6446 16.7725ZM58.0117 11.1253C58.0724 10.7046 58.4366 10.4641 58.8614 10.4641C59.5291 10.4037 60.2564 10.5245 60.8634 10.8244L61.2276 9.1426C60.6206 8.90205 59.9529 8.78125 59.347 8.78125C57.3451 8.78125 55.8884 9.86322 55.8884 11.3649C55.8884 12.5072 56.9202 13.1071 57.6486 13.4684C58.4366 13.8287 58.7401 14.0693 58.6794 14.4296C58.6794 14.97 58.0724 15.2106 57.4665 15.2106C56.7381 15.2106 56.0097 15.0304 55.3431 14.7295L54.979 16.4123C55.7073 16.7122 56.4953 16.833 57.2237 16.833C59.4684 16.8924 60.8634 15.8115 60.8634 14.189C60.8634 12.1459 58.0117 12.0261 58.0117 11.1253V11.1253ZM68.0816 16.7725L66.4438 8.96131H64.6846C64.3205 8.96131 63.9563 9.20186 63.8349 9.56217L60.8022 16.7725H62.9255L63.3493 15.6312H65.9582L66.201 16.7725H68.0816ZM64.9889 11.0652L65.5948 14.0091H63.8963L64.9889 11.0652Z" fill="white"></path><g clip-path="url(#clip0_431_846)"><path d="M5.91406 5.17676H6.20026V12.7758H5.91406V5.17676ZM6.48646 5.17676H6.77265V12.7758H6.48646V5.17676ZM8.20492 5.17676H8.49111V12.7758H8.20492V5.17676ZM13.7757 5.17676H14.0619V12.7758H13.7757V5.17676ZM15.6381 5.17676H15.9243V12.7758H15.6381V5.17676ZM17.4441 5.17676H17.7303V12.7758H17.4441V5.17676ZM17.9095 5.17676H18.1957V12.7758H17.9099L17.9095 5.17676ZM18.3756 5.17676H18.6618V12.7758H18.3756V5.17676ZM18.8994 5.17676H19.1855V12.7758H18.8995L18.8994 5.17676ZM19.4231 5.17676H19.7092V12.7758H19.4231V5.17676ZM20.879 5.17676H21.1652V12.7758H20.8786L20.879 5.17676ZM24.489 5.17676H24.7752V12.7758H24.489V5.17676ZM28.2545 5.17676H28.5406V12.7758H28.2544L28.2545 5.17676ZM29.2845 5.17676H29.5707V12.7758H29.2845V5.17676ZM30.0291 5.17676H30.3153V12.7758H30.0291V5.17676ZM30.4873 5.17676H30.7735V12.7758H30.4873V5.17676ZM10.0949 5.17676H10.3811V12.7758H10.0949V5.17676ZM7.2311 5.17676H7.74647V12.7758H7.2311V5.17676ZM10.6321 5.17676H11.1473V12.7758H10.6321V5.17676ZM13.0201 5.17676H13.5354V12.7758H13.0201V5.17676ZM14.2427 5.17676H14.758V12.7758H14.2427V5.17676ZM16.1641 5.17676H16.6793V12.7758H16.1641V5.17676ZM21.6419 5.17676H22.4434V12.7758H21.6419V5.17676ZM22.6888 5.17676H23.3183V12.7758H22.6881L22.6888 5.17676ZM23.7935 5.17676H24.3088V12.7758H23.7935V5.17676ZM25.2543 5.17676H26.1135V12.7758H25.2543V5.17676ZM26.9368 5.17676H27.7961V12.7758H26.9368V5.17676ZM8.7776 5.17676H9.80815V12.7758H8.7776V5.17676ZM11.4487 5.17676H12.2502V12.7758H11.4487V5.17676Z" fill="white"></path><path d="M6.28516 19.5226V15.1732H7.9173C8.19004 15.1626 8.46208 15.2075 8.717 15.305C8.9124 15.3886 9.07711 15.5306 9.18848 15.7115C9.29886 15.8828 9.3581 16.082 9.35926 16.2857C9.35927 16.4715 9.30683 16.6535 9.20798 16.8108C9.09661 16.984 8.93807 17.1219 8.751 17.2081C8.99106 17.2698 9.20438 17.4083 9.35848 17.6025C9.50107 17.792 9.57574 18.024 9.5705 18.2612C9.57219 18.458 9.52808 18.6526 9.44166 18.8294C9.3686 18.988 9.25884 19.1269 9.12146 19.2347C8.97847 19.3373 8.81656 19.4106 8.64509 19.4502C8.41518 19.503 8.17969 19.5274 7.94385 19.5231L6.28516 19.5226ZM6.86128 17.001H7.80188C7.98557 17.0081 8.16942 16.9912 8.3487 16.9505C8.47992 16.9172 8.59627 16.8411 8.67928 16.7342C8.75657 16.623 8.7956 16.4897 8.79049 16.3544C8.79314 16.2201 8.75708 16.0878 8.68663 15.9734C8.61941 15.8649 8.5149 15.7845 8.39269 15.7474C8.17584 15.6975 7.95325 15.6771 7.73094 15.6866H6.86147L6.86128 17.001ZM6.86128 19.0095H7.94404C8.07502 19.013 8.20606 19.0061 8.33596 18.989C8.45345 18.9699 8.56624 18.9286 8.66831 18.8674C8.76158 18.8071 8.83726 18.7233 8.88768 18.6244C8.94656 18.512 8.97625 18.3866 8.974 18.2598C8.97805 18.1084 8.93449 17.9596 8.84947 17.8344C8.76553 17.7142 8.64383 17.6254 8.5037 17.5823C8.2965 17.5262 8.08204 17.5016 7.86752 17.5094H6.86128V19.0095ZM10.4117 17.4047C10.3752 16.7849 10.584 16.1756 10.993 15.7085C11.1857 15.5061 11.4192 15.3468 11.678 15.2412C11.9369 15.1356 12.2151 15.0861 12.4945 15.0959C12.876 15.0908 13.2516 15.1904 13.5803 15.384C13.8999 15.5729 14.1563 15.8522 14.3174 16.1867C14.491 16.5509 14.5777 16.9505 14.5708 17.354C14.5781 17.7642 14.4868 18.1701 14.3047 18.5377C14.1393 18.8722 13.8752 19.1479 13.5482 19.3276C13.2248 19.5058 12.8612 19.5983 12.492 19.5961C12.1057 19.6025 11.7254 19.4999 11.3947 19.3002C11.0764 19.1073 10.8215 18.8256 10.6613 18.4897C10.4961 18.1519 10.4107 17.7807 10.4117 17.4047V17.4047ZM11.0053 17.4138C10.9806 17.8664 11.1332 18.3108 11.4306 18.6528C11.5648 18.7997 11.729 18.9162 11.912 18.9943C12.0951 19.0724 12.2927 19.1103 12.4917 19.1055C12.6918 19.1105 12.8906 19.0723 13.0746 18.9933C13.2585 18.9143 13.4232 18.7965 13.5574 18.6479C13.8575 18.285 14.0077 17.8212 13.9773 17.3512C13.9853 17.0331 13.925 16.7169 13.8005 16.424C13.6907 16.1714 13.5079 15.9574 13.2755 15.8096C13.0432 15.6637 12.7738 15.588 12.4995 15.5915C12.3051 15.5886 12.1121 15.6242 11.9316 15.6962C11.7511 15.7683 11.5866 15.8754 11.4477 16.0114C11.2833 16.2032 11.1594 16.4262 11.0834 16.6671C11.0074 16.908 10.9808 17.1618 11.0053 17.4132V17.4138ZM15.5146 19.5229V15.1732H16.09V19.0091H18.232V19.5226L15.5146 19.5229ZM19.1543 19.5229V15.1732H22.2995V15.6866H19.7298V17.0191H22.136V17.5295H19.7298V19.0096H22.4004V19.5231L19.1543 19.5229ZM24.5271 19.5229V15.6866H23.0934V15.1732H26.5411V15.6866H25.1022V19.5226L24.5271 19.5229ZM27.0719 17.4047C27.0358 16.7848 27.2452 16.1756 27.6546 15.7088C27.8474 15.5064 28.0809 15.3471 28.3397 15.2415C28.5985 15.1359 28.8767 15.0864 29.1561 15.0962C29.5375 15.091 29.9131 15.1907 30.2419 15.3843C30.5615 15.5732 30.8179 15.8525 30.979 16.1869C31.1527 16.5512 31.2394 16.9508 31.2323 17.3543C31.2395 17.7645 31.148 18.1704 30.9656 18.538C30.7997 18.873 30.5347 19.149 30.2067 19.3285C29.8834 19.5067 29.5198 19.5992 29.1506 19.597C28.764 19.6034 28.3835 19.5006 28.0526 19.3005C27.735 19.1074 27.4807 18.8256 27.321 18.4899C27.1559 18.1521 27.0707 17.7808 27.0719 17.4047V17.4047ZM27.6655 17.4138C27.6408 17.8664 27.7934 18.3108 28.0908 18.6528C28.225 18.7997 28.3892 18.9162 28.5722 18.9943C28.7553 19.0724 28.9529 19.1103 29.1519 19.1055C29.3526 19.1111 29.5521 19.0732 29.7367 18.9943C29.9214 18.9154 30.0867 18.7974 30.2213 18.6485C30.5214 18.2856 30.6716 17.8218 30.6411 17.3518C30.6474 17.0332 30.5852 16.717 30.4588 16.4245C30.349 16.172 30.1662 15.958 29.9338 15.8102C29.7017 15.6644 29.4324 15.5887 29.1583 15.5921C28.9639 15.5892 28.7709 15.6247 28.5904 15.6968C28.4098 15.7689 28.2453 15.876 28.1064 16.012C27.9424 16.2038 27.8188 16.4268 27.7431 16.6675C27.6673 16.9083 27.6409 17.1619 27.6655 17.4131V17.4138Z" fill="white"></path></g><defs><clipPath id="clip0_431_846"><rect width="25.3182" height="14.4207" fill="white" transform="translate(5.91406 5.17676)"></rect></clipPath></defs></svg>